<svg xmlns="http://www.w3.org/2000/svg" enable-background="new 0 0 32 32" viewBox="0 0 32 32"><path d="M30.94,8.84c-0.15-0.68-0.56-1.27-1.15-1.64l-9.07-5.79C20.29,1.14,19.8,1,19.31,1c-0.9,0-1.73,0.46-2.21,1.22l-0.7,1.1
			c0.35,0.19,0.68,0.42,0.96,0.72c0.68,0.7,1.05,1.65,1.05,2.65v22.55c0.41-0.21,0.77-0.52,1.02-0.92l11.16-17.5
			C30.97,10.22,31.09,9.52,30.94,8.84z"/><path d="M14.38,5.01H3.62C2.17,5.01,1,6.19,1,7.63v20.75C1,29.83,2.17,31,3.62,31h10.76c1.44,0,2.62-1.17,2.62-2.62V7.63
			c0-0.68-0.26-1.33-0.72-1.8C15.79,5.31,15.1,5.01,14.38,5.01z M7,21.76c0,0.55-0.45,1-1,1s-1-0.45-1-1V10.25c0-0.55,0.45-1,1-1
			s1,0.45,1,1V21.76z M12.29,24.38c0,0.55-0.45,1-1,1s-1-0.45-1-1V12.87c0-0.55,0.45-1,1-1s1,0.45,1,1V24.38z"/></svg>